<mxfile host="app.diagrams.net" modified="2023-11-22T02:13:51.885Z" agent="Mozilla/5.0 (Windows NT 10.0; Win64; x64) AppleWebKit/537.36 (KHTML, like Gecko) Chrome/118.0.0.0 Safari/537.36 OPR/104.0.0.0" version="22.1.3" etag="yaGj89-VzMC4O3Ph4-t5" type="github">
  <diagram name="Page-1" id="9B36Z_m_yyIDlJ2Rh6Xc">
    <mxGraphModel>
      <root>
        <mxCell id="0" />
        <mxCell id="1" parent="0" />
      </root>
    </mxGraphModel>
  </diagram>
</mxfile>
